<svg version="1.1" xmlns="http://www.w3.org/2000/svg" xmlns:xlink="http://www.w3.org/1999/xlink" width="32.03011" height="38.77742" viewBox="0,0,32.03011,38.77742"><g transform="translate(-223.98494,-159.11129)"><g data-paper-data="{&quot;isPaintingLayer&quot;:true}" fill="none" fill-rule="nonzero" stroke-linecap="round" stroke-linejoin="miter" stroke-miterlimit="10" stroke-dasharray="" stroke-dashoffset="0" style="mix-blend-mode: normal"><path d="M233.68312,192.2904l-1.14328,3.96492l2.30512,-8.31656l-0.88934,3.34186" data-paper-data="{&quot;index&quot;:null}" stroke="#000000" stroke-width="6"/><path d="M233.68312,192.2904l-0.80006,2.96492l1.70447,-6.31656l-0.63193,2.34186" data-paper-data="{&quot;index&quot;:null}" stroke="#ffffff" stroke-width="4"/><path d="M245.69939,191.28061l-0.88934,-3.34186l2.30511,8.31657l-1.14328,-3.96492" data-paper-data="{&quot;index&quot;:null}" stroke="#000000" stroke-width="6"/><path d="M245.69939,191.28061l-0.63193,-2.34186l1.70447,6.31656l-0.80006,-2.96492" data-paper-data="{&quot;index&quot;:null}" stroke="#ffffff" stroke-width="4"/><path d="M247.48337,185.23593h5.53168c-3.48756,0 -26.03011,0 -26.03011,0h3.95019" stroke="#000000" stroke-width="6"/><path d="M239.9571,185.47204v12.41667v-6.16667" stroke="#000000" stroke-width="6"/><path d="M247.45948,162.11129h5.53168c-3.48756,0 -25.95656,0 -25.95656,0h3.87664" stroke="#000000" stroke-width="6"/><path d="M236.40772,162.50439c0,0 0,8.56063 0,11.50897c0,4.92924 -9.3412,4.66415 -9.3412,4.66415l1.67875,-0.01136" stroke="#000000" stroke-width="6"/><path d="M236.40772,170.04579h-9.39939h2.32901" stroke="#000000" stroke-width="6"/><path d="M251.25471,178.66616l1.67875,0.01136c0,0 -9.3412,0.26508 -9.3412,-4.66415c0,-2.94833 0,-11.50897 0,-11.50897" data-paper-data="{&quot;index&quot;:null}" stroke="#000000" stroke-width="6"/><path d="M243.59227,170.04579h9.39939h-2.32901" data-paper-data="{&quot;index&quot;:null}" stroke="#000000" stroke-width="6"/><path d="M247.45948,162.11129h4.50202c-3.48756,0 -23.97077,0 -23.97077,0h2.92052" stroke="#ffffff" stroke-width="4"/><path d="M236.40772,162.50439c0,0 0,8.56063 0,11.50897c0,4.92924 -8.38508,4.66415 -8.38508,4.66415l0.72263,-0.01136" stroke="#ffffff" stroke-width="4"/><path d="M229.26378,170.04579h-1.29934h8.44327" stroke="#ffffff" stroke-width="4"/><path d="M251.25471,178.66616l0.72263,0.01136c0,0 -8.38508,0.26508 -8.38508,-4.66415c0,-2.94833 0,-11.50897 0,-11.50897" data-paper-data="{&quot;index&quot;:null}" stroke="#ffffff" stroke-width="4"/><path d="M243.59227,170.04579h8.44327h-1.37289" data-paper-data="{&quot;index&quot;:null}" stroke="#ffffff" stroke-width="4"/><path d="M230.93512,185.23593h-3.00632c0,0 20.65483,0 24.14239,0h-4.58782" stroke="#ffffff" stroke-width="4"/><path d="M239.9571,191.72204v5.16667v-11.41667" stroke="#ffffff" stroke-width="4"/></g></g></svg>