<svg version="1.1" xmlns="http://www.w3.org/2000/svg" xmlns:xlink="http://www.w3.org/1999/xlink" width="44.62121" height="31.86833" viewBox="0,0,44.62121,31.86833"><g transform="translate(-217.68939,-164.06584)"><g data-paper-data="{&quot;isPaintingLayer&quot;:true}" fill="none" fill-rule="nonzero" stroke-linecap="round" stroke-linejoin="miter" stroke-miterlimit="10" stroke-dasharray="" stroke-dashoffset="0" style="mix-blend-mode: normal"><path d="M248.1668,167.16972l-0.16079,25.34987l-15.93091,-0.05978l0.00079,-24.79009" stroke="#000000" stroke-width="6"/><path d="M233.24091,179.49276h13.54546" stroke="#000000" stroke-width="6"/><path d="M247.28449,167.06584h10.01097h-34.10139h11.56439" stroke="#000000" stroke-width="6"/><path d="M247.28449,167.06584h9.02467h-32.22741h10.67672" stroke="#ffffff" stroke-width="4"/><path d="M248.1668,167.16972l-0.16078,25.34987l-15.93093,-0.05978l0.0008,-24.79009" stroke="#ffffff" stroke-width="4"/><path d="M259.04443,175.27715h3.26618h-9.95454h3.83282" data-paper-data="{&quot;index&quot;:null}" stroke="#000000" stroke-width="6"/><path d="M256.18889,175.27715h-2.85555h8.02272h-2.31163" data-paper-data="{&quot;index&quot;:null}" stroke="#ffffff" stroke-width="4"/><path d="M233.24091,179.49276h13.54546" stroke="#ffffff" stroke-width="4"/><path d="M221.52222,175.27715h-3.83282h9.95454h-3.26618" data-paper-data="{&quot;index&quot;:null}" stroke="#000000" stroke-width="6"/><path d="M224.37776,175.27715h2.31163h-8.02272h2.85555" data-paper-data="{&quot;index&quot;:null}" stroke="#ffffff" stroke-width="4"/><path d="M222.43288,191.0701l-2.25105,3.10214l5.84638,-8.05685l-1.91825,2.64353" data-paper-data="{&quot;index&quot;:null}" stroke="#000000" stroke-width="6"/><path d="M222.43288,191.07009l-1.67709,2.31118l4.71181,-6.4933l-1.35764,1.87095" data-paper-data="{&quot;index&quot;:null}" stroke="#ffffff" stroke-width="4"/><path d="M257.47936,191.00343l2.25104,3.10215l-5.84638,-8.05685l1.91826,2.64353" data-paper-data="{&quot;index&quot;:null}" stroke="#000000" stroke-width="6"/><path d="M257.47936,191.00342l1.67709,2.31118l-4.71182,-6.4933l1.35764,1.87095" data-paper-data="{&quot;index&quot;:null}" stroke="#ffffff" stroke-width="4"/></g></g></svg>