<svg version="1.1" xmlns="http://www.w3.org/2000/svg" xmlns:xlink="http://www.w3.org/1999/xlink" width="31.2212" height="30.70103" viewBox="0,0,31.2212,30.70103"><g transform="translate(-224.39566,-159.25)"><g data-paper-data="{&quot;isPaintingLayer&quot;:true}" fill="none" fill-rule="nonzero" stroke-linejoin="miter" stroke-miterlimit="10" stroke-dasharray="" stroke-dashoffset="0" style="mix-blend-mode: normal"><path d="M247.23204,162.25h5.3723c-3.38707,0 -25.20868,0 -25.20868,0h3.76494" stroke="#000000" stroke-width="6" stroke-linecap="round"/><path d="M234.04167,167.66667c0,-2.96414 2.66764,-5.36705 5.95834,-5.36705c3.29069,0 5.95834,2.40291 5.95834,5.36705c0,2.96414 -2.66764,5.36704 -5.95834,5.36704c-3.29069,0 -5.95834,-2.40291 -5.95834,-5.36704z" stroke="#000000" stroke-width="6" stroke-linecap="butt"/><path d="M247.24456,173.04897h5.3723c-3.38707,0 -25.20868,0 -25.20868,0h3.76494" stroke="#000000" stroke-width="6" stroke-linecap="round"/><path d="M236.51123,173.3788c0,0 0,7.18283 0,9.65665c0,4.1359 -9.07205,3.91348 -9.07205,3.91348l1.63038,-0.00953" stroke="#000000" stroke-width="6" stroke-linecap="round"/><path d="M229.64456,179.70645h-2.2619h9.12857" stroke="#000000" stroke-width="6" stroke-linecap="round"/><path d="M250.93044,186.9394l1.63038,0.00953c0,0 -9.07205,0.22242 -9.07205,-3.91348c0,-2.47381 0,-9.65665 0,-9.65665" data-paper-data="{&quot;index&quot;:null}" stroke="#000000" stroke-width="6" stroke-linecap="round"/><path d="M243.48877,179.70645h9.12857h-2.2619" data-paper-data="{&quot;index&quot;:null}" stroke="#000000" stroke-width="6" stroke-linecap="round"/><path d="M247.24456,173.04897h4.3723c-3.38707,0 -23.28011,0 -23.28011,0h2.83637" stroke="#ffffff" stroke-width="4" stroke-linecap="round"/><path d="M236.51123,173.3788c0,0 0,7.18283 0,9.65665c0,4.1359 -8.14348,3.91348 -8.14348,3.91348l0.70181,-0.00953" stroke="#ffffff" stroke-width="4" stroke-linecap="round"/><path d="M229.57313,179.70645h-1.2619h8.2" stroke="#ffffff" stroke-width="4" stroke-linecap="round"/><path d="M250.93044,186.9394l0.70181,0.00953c0,0 -8.14348,0.22242 -8.14348,-3.91348c0,-2.47381 0,-9.65665 0,-9.65665" data-paper-data="{&quot;index&quot;:null}" stroke="#ffffff" stroke-width="4" stroke-linecap="round"/><path d="M243.48877,179.70645h8.2h-1.33333" data-paper-data="{&quot;index&quot;:null}" stroke="#ffffff" stroke-width="4" stroke-linecap="round"/><path d="M234.04167,167.67462c0,-2.96414 2.66764,-5.36705 5.95833,-5.36705c3.2907,0 5.95833,2.40291 5.95833,5.36705c0,2.96414 -2.66764,5.36705 -5.95833,5.36705c-3.2907,0 -5.95833,-2.40291 -5.95833,-5.36705z" stroke="#ffffff" stroke-width="4" stroke-linecap="butt"/><path d="M247.26776,162.25h4.3723c-3.38707,0 -23.28011,0 -23.28011,0h2.83637" stroke="#ffffff" stroke-width="4" stroke-linecap="round"/></g></g></svg>