<svg version="1.1" xmlns="http://www.w3.org/2000/svg" xmlns:xlink="http://www.w3.org/1999/xlink" width="64.82026" height="146.05418" viewBox="0,0,64.82026,146.05418"><g transform="translate(-207.53287,-108)"><g data-paper-data="{&quot;isPaintingLayer&quot;:true}" fill="none" fill-rule="nonzero" stroke-linejoin="miter" stroke-miterlimit="10" stroke-dasharray="" stroke-dashoffset="0" style="mix-blend-mode: normal"><path d="M220.92494,166.37695c0,0 0,36.17823 0,48.63829c0,20.83157 -10.24315,19.81649 -10.24315,19.81649l1.54736,-0.1532" stroke="#000000" stroke-width="6" stroke-linecap="round"/><path d="M240.2445,202.17687v-30.11239" stroke="#000000" stroke-width="6" stroke-linecap="round"/><path d="M218.3044,164.96564h-7.77153c0,0 50.49517,0 58.82026,0h-11.54669" stroke="#000000" stroke-width="6" stroke-linecap="round"/><path d="M212.56249,182.32725h-2.11053h9.21602" stroke="#000000" stroke-width="6" stroke-linecap="round"/><path d="M267.40389,182.34533h2.14416h-9.47299" data-paper-data="{&quot;index&quot;:null}" stroke="#000000" stroke-width="6" stroke-linecap="round"/><path d="M216.80422,134.33334c0,-12.88664 10.44669,-23.33334 23.33334,-23.33334c12.88664,0 23.33333,10.44669 23.33333,23.33334c0,12.88664 -10.44669,23.33333 -23.33333,23.33333c-12.88664,0 -23.33334,-10.44669 -23.33334,-23.33333z" stroke="#000000" stroke-width="6" stroke-linecap="butt"/><path d="M216.80422,134.33334c0,-12.88664 10.44669,-23.33334 23.33334,-23.33334c12.88664,0 23.33333,10.44669 23.33333,23.33334c0,12.88664 -10.44669,23.33333 -23.33333,23.33333c-12.88664,0 -23.33334,-10.44669 -23.33334,-23.33333z" stroke="#ffffff" stroke-width="4" stroke-linecap="butt"/><path d="M230.15161,203.40978h-4.20137c0,0 21.92849,0 25.70818,0c0.09225,6.35569 0.79932,10.30751 -4.20346,14.09744c-8.68481,6.57932 -18.17792,-0.29458 -18.17792,-0.29458" stroke="#000000" stroke-width="6" stroke-linecap="round"/><path d="M249.45033,216.54937l5.37986,3.45773l-4.76883,-3.06379" stroke="#000000" stroke-width="6" stroke-linecap="round"/><path d="M230.15161,203.40978h-3.2784c0,0 21.00552,0 24.78521,0c0.09225,6.35569 0.79932,10.30751 -4.20346,14.09744c-8.68481,6.57932 -18.17792,-0.29458 -18.17792,-0.29458" stroke="#ffffff" stroke-width="4" stroke-linecap="round"/><path d="M250.06137,216.94331l3.97173,2.56065l-4.58277,-2.95459" stroke="#ffffff" stroke-width="4" stroke-linecap="round"/><path d="M212.56248,182.32725h-1.29235h8.39784" stroke="#ffffff" stroke-width="4" stroke-linecap="round"/><path d="M267.81395,234.67852l1.60426,0.1532c0,0 -9.84315,1.01508 -9.84315,-19.81649c0,-12.46001 0,-48.63828 0,-48.63828" data-paper-data="{&quot;index&quot;:null}" stroke="#000000" stroke-width="6" stroke-linecap="round"/><path d="M220.92494,166.37695c0,0 0,36.17823 0,48.63829c0,20.83157 -9.51588,19.71129 -9.51588,19.71129l0.82009,-0.048" stroke="#ffffff" stroke-width="4" stroke-linecap="round"/><path d="M267.81395,234.67852l0.77699,0.048c0,0 -9.01588,1.12028 -9.01588,-19.71129c0,-12.46001 0,-48.63828 0,-48.63828" data-paper-data="{&quot;index&quot;:null}" stroke="#ffffff" stroke-width="4" stroke-linecap="round"/><path d="M260.07507,182.34533h8.65481h-1.32598" data-paper-data="{&quot;index&quot;:null}" stroke="#ffffff" stroke-width="4" stroke-linecap="round"/><path d="M248.64611,171.3141h6.06003c-3.87214,0 -28.73724,0 -28.73724,0h4.30413" stroke="#000000" stroke-width="6" stroke-linecap="round"/><path d="M230.27304,182.35106h-4.30413c0,0 24.8651,0 28.73724,0h-6.06003" stroke="#000000" stroke-width="6" stroke-linecap="round"/><path d="M230.27305,193.45182h-4.30413c0,0 24.8651,0 28.73724,0h-6.06003" stroke="#000000" stroke-width="6" stroke-linecap="round"/><path d="M248.6461,171.3141h4.99848c-3.87214,0 -26.61413,0 -26.61413,0h3.24258" stroke="#ffffff" stroke-width="4" stroke-linecap="round"/><path d="M240.2445,202.17687v-30.11239" stroke="#ffffff" stroke-width="4" stroke-linecap="round"/><path d="M230.27305,182.35106h-3.24258c0,0 22.74199,0 26.61413,0h-4.99848" stroke="#ffffff" stroke-width="4" stroke-linecap="round"/><path d="M230.27305,193.45182h-3.24258c0,0 22.74199,0 26.61413,0h-4.99848" stroke="#ffffff" stroke-width="4" stroke-linecap="round"/><path d="M213.73533,198.44739v-5.27542v16.28572v-3.88512" stroke="#000000" stroke-width="6" stroke-linecap="round"/><path d="M213.73533,198.44739v-4.51841v14.77173v-3.12813" stroke="#ffffff" stroke-width="4" stroke-linecap="round"/><path d="M266.57818,205.57257v3.88512v-16.28572v5.27542" stroke="#000000" stroke-width="6" stroke-linecap="round"/><path d="M266.57818,205.57258v3.12813v-14.77173v4.51841" stroke="#ffffff" stroke-width="4" stroke-linecap="round"/><path d="M257.80643,164.96564h10.74669c-8.32509,0 -57.22026,0 -57.22026,0h6.97153" stroke="#ffffff" stroke-width="4" stroke-linecap="round"/><path d="M251.05669,137.7986c0,0 0.24277,9.40185 -9.6219,9.57974c-5.66695,0.1022 -12.05234,-3.48096 -12.04994,-7.53821c0.00537,-9.0194 22.28991,-11.36553 22.25629,-15.74334c-3.75456,0 -25.47122,0 -25.47122,0h4.10745" stroke="#000000" stroke-width="6" stroke-linecap="round"/><path d="M251.05669,137.7986c0,0 0.24277,9.40185 -9.6219,9.57974c-5.66695,0.1022 -12.05234,-3.48096 -12.04994,-7.53821c0.00537,-9.0194 22.28991,-11.36553 22.25629,-15.74334c-3.75456,0 -24.50787,0 -24.50787,0h3.14411" stroke="#ffffff" stroke-width="4" stroke-linecap="round"/><path d="M251.4343,241.26493c0,0 0.24808,9.60747 -9.83233,9.78925c-5.79088,0.10443 -12.31592,-3.55708 -12.31347,-7.70307c0.00549,-9.21666 22.77739,-11.61409 22.74304,-16.08765c-3.83668,0 -26.02827,0 -26.02827,0h4.19728" stroke="#000000" stroke-width="6" stroke-linecap="round"/><path d="M251.4343,241.26493c0,0 0.24808,9.60747 -9.83233,9.78925c-5.79088,0.10443 -12.31592,-3.55708 -12.31347,-7.70307c0.00549,-9.21666 22.77739,-11.61409 22.74304,-16.08765c-3.83668,0 -25.04386,0 -25.04386,0h3.21288" stroke="#ffffff" stroke-width="4" stroke-linecap="round"/></g></g></svg>