<svg version="1.1" xmlns="http://www.w3.org/2000/svg" xmlns:xlink="http://www.w3.org/1999/xlink" width="64.82026" height="131.87356" viewBox="0,0,64.82026,131.87356"><g transform="translate(-207.39534,-114.5)"><g data-paper-data="{&quot;isPaintingLayer&quot;:true}" fill="none" fill-rule="nonzero" stroke-linejoin="miter" stroke-miterlimit="10" stroke-dasharray="" stroke-dashoffset="0" style="mix-blend-mode: normal"><path d="M257.66891,171.63231h11.54669c-8.32509,0 -58.82026,0 -58.82026,0h7.77153" stroke="#000000" stroke-width="6" stroke-linecap="round"/><path d="M212.42496,188.99392h-2.11053h9.21602" stroke="#000000" stroke-width="6" stroke-linecap="round"/><path d="M220.78742,173.04362c0,0 0,31.26377 0,42.03125c0,18.0018 -10.24315,17.12461 -10.24315,17.12461l1.54736,-0.13239" stroke="#000000" stroke-width="6" stroke-linecap="round"/><path d="M267.67643,232.06709l1.50426,0.13239c0,0 -9.74315,0.87719 -9.74315,-17.12461c0,-10.76744 0,-42.03125 0,-42.03125" data-paper-data="{&quot;index&quot;:null}" stroke="#000000" stroke-width="6" stroke-linecap="round"/><path d="M259.93754,189.012h9.47299h-2.14416" data-paper-data="{&quot;index&quot;:null}" stroke="#000000" stroke-width="6" stroke-linecap="round"/><path d="M216.66668,140.83334c0,-12.88664 10.44669,-23.33334 23.33334,-23.33334c12.88664,0 23.33333,10.44669 23.33333,23.33334c0,12.88664 -10.44669,23.33333 -23.33333,23.33333c-12.88664,0 -23.33334,-10.44669 -23.33334,-23.33333z" stroke="#000000" stroke-width="6" stroke-linecap="butt"/><path d="M216.66668,140.83334c0,-12.88664 10.44669,-23.33334 23.33334,-23.33334c12.88664,0 23.33333,10.44669 23.33333,23.33334c0,12.88664 -10.44669,23.33333 -23.33333,23.33333c-12.88664,0 -23.33334,-10.44669 -23.33334,-23.33333z" stroke="#ffffff" stroke-width="4" stroke-linecap="butt"/><path d="M229.92318,131.12644h-4.31048c0,0 22.49796,0 26.37581,0c0.09465,8.26418 0.82008,13.40267 -4.31262,18.33064c-8.91035,8.55495 -18.64999,-0.38304 -18.64999,-0.38304" stroke="#000000" stroke-width="6" stroke-linecap="round"/><path d="M249.72308,148.21161l5.51957,4.49603l-4.89267,-3.98379" stroke="#000000" stroke-width="6" stroke-linecap="round"/><path d="M229.92318,131.12644h-3.24736c0,0 21.43484,0 25.31269,0c0.09465,8.26418 0.82008,13.40267 -4.31262,18.33064c-8.91035,8.55495 -18.64999,-0.38304 -18.64999,-0.38304" stroke="#ffffff" stroke-width="4" stroke-linecap="round"/><path d="M249.72308,148.21161l4.70178,3.8418l-4.07488,-3.32956" stroke="#ffffff" stroke-width="4" stroke-linecap="round"/><path d="M229.0005,223.12645h-4.6378c0,0 24.20638,0 28.3787,0c0.10184,7.59329 0.88235,12.31463 -4.64011,16.84254c-9.58698,7.86046 -20.06621,-0.35194 -20.06621,-0.35194" stroke="#000000" stroke-width="6" stroke-linecap="round"/><path d="M250.30394,238.82462l5.93871,4.13104l-5.26421,-3.66039" stroke="#000000" stroke-width="6" stroke-linecap="round"/><path d="M229.0005,223.12645h-3.61895c0,0 23.18753,0 27.35985,0c0.10184,7.59329 0.88235,12.31463 -4.64011,16.84254c-9.58698,7.86046 -20.06621,-0.35194 -20.06621,-0.35194" stroke="#ffffff" stroke-width="4" stroke-linecap="round"/><path d="M250.97845,239.29527l4.38431,3.05927l-5.05882,-3.52992" stroke="#ffffff" stroke-width="4" stroke-linecap="round"/><path d="M257.66891,171.63231h10.74669c-8.32509,0 -57.22026,0 -57.22026,0h6.97153" stroke="#ffffff" stroke-width="4" stroke-linecap="round"/><path d="M212.42496,188.99392h-1.29235h8.39784" stroke="#ffffff" stroke-width="4" stroke-linecap="round"/><path d="M220.78742,173.04362c0,0 0,31.26377 0,42.03125c0,18.0018 -9.51588,17.0337 -9.51588,17.0337l0.82009,-0.04148" stroke="#ffffff" stroke-width="4" stroke-linecap="round"/><path d="M267.67643,232.06709l0.77699,0.04148c0,0 -9.01588,0.9681 -9.01588,-17.0337c0,-10.76744 0,-42.03125 0,-42.03125" data-paper-data="{&quot;index&quot;:null}" stroke="#ffffff" stroke-width="4" stroke-linecap="round"/><path d="M259.93754,189.012h8.65481h-1.32598" data-paper-data="{&quot;index&quot;:null}" stroke="#ffffff" stroke-width="4" stroke-linecap="round"/><path d="M230.13551,177.98077h-4.30413c0,0 24.8651,0 28.73724,0h-6.06003" stroke="#000000" stroke-width="6" stroke-linecap="round"/><path d="M240.10696,208.84354v-30.11239" stroke="#000000" stroke-width="6" stroke-linecap="round"/><path d="M230.13551,189.01773h-4.30413c0,0 24.8651,0 28.73724,0h-6.06003" stroke="#000000" stroke-width="6" stroke-linecap="round"/><path d="M230.13551,211.21923h-4.30413c0,0 24.8651,0 28.73724,0h-6.06003" stroke="#000000" stroke-width="6" stroke-linecap="round"/><path d="M230.13551,200.11849h-4.30413c0,0 24.8651,0 28.73724,0h-6.06003" stroke="#000000" stroke-width="6" stroke-linecap="round"/><path d="M230.13551,177.98077h-3.24258c0,0 22.74199,0 26.61413,0h-4.99848" stroke="#ffffff" stroke-width="4" stroke-linecap="round"/><path d="M240.10696,208.84354v-30.11239" stroke="#ffffff" stroke-width="4" stroke-linecap="round"/><path d="M248.50859,189.01773h4.99848c-3.87214,0 -26.61413,0 -26.61413,0h3.24258" stroke="#ffffff" stroke-width="4" stroke-linecap="round"/><path d="M248.50859,211.21923h4.99848c-3.87214,0 -26.61413,0 -26.61413,0h3.24258" stroke="#ffffff" stroke-width="4" stroke-linecap="round"/><path d="M248.50859,200.11849h4.99848c-3.87214,0 -26.61413,0 -26.61413,0h3.24258" stroke="#ffffff" stroke-width="4" stroke-linecap="round"/><path d="M213.83589,212.23924v3.88512v-16.28572v5.27542" stroke="#000000" stroke-width="6" stroke-linecap="round"/><path d="M213.83589,212.23925v3.12813v-14.77173v4.51841" stroke="#ffffff" stroke-width="4" stroke-linecap="round"/><path d="M266.39303,205.11406v-5.27542v16.28572v-3.88512" stroke="#000000" stroke-width="6" stroke-linecap="round"/><path d="M266.39303,212.23925v3.12813v-14.77173v4.51841" stroke="#ffffff" stroke-width="4" stroke-linecap="round"/></g></g></svg>