<svg version="1.1" xmlns="http://www.w3.org/2000/svg" xmlns:xlink="http://www.w3.org/1999/xlink" width="52.66667" height="114.57916" viewBox="0,0,52.66667,114.57916"><g transform="translate(-213.66669,-123.14285)"><g data-paper-data="{&quot;isPaintingLayer&quot;:true}" fill="none" fill-rule="nonzero" stroke-linejoin="miter" stroke-miterlimit="10" stroke-dasharray="" stroke-dashoffset="0" style="mix-blend-mode: normal"><path d="M229.99463,139.21564h-4.26226c0,0 24.7041,0 28.53858,0h-6.08195" stroke="#000000" stroke-width="6" stroke-linecap="round"/><path d="M236.03787,139.70543c0,0 0,10.6663 0,14.33985c0,6.1417 -10.27041,5.81141 -10.27041,5.81141l1.84574,-0.01415" stroke="#000000" stroke-width="6" stroke-linecap="round"/><path d="M228.26416,149.1018h-2.56068h10.33439" stroke="#000000" stroke-width="6" stroke-linecap="round"/><path d="M252.36176,159.84254l1.84574,0.01415c0,0 -10.27041,0.33029 -10.27041,-5.81141c0,-3.67354 0,-14.33985 0,-14.33985" data-paper-data="{&quot;index&quot;:null}" stroke="#000000" stroke-width="6" stroke-linecap="round"/><path d="M251.7108,149.1018h2.56068h-10.33439" data-paper-data="{&quot;index&quot;:null}" stroke="#000000" stroke-width="6" stroke-linecap="round"/><path d="M248.189,139.21564h4.94985c-3.83448,0 -26.35526,0 -26.35526,0h3.21104" stroke="#ffffff" stroke-width="4" stroke-linecap="round"/><path d="M236.03787,139.70543c0,0 0,10.6663 0,14.33985c0,6.1417 -9.21918,5.81141 -9.21918,5.81141l0.79451,-0.01415" stroke="#ffffff" stroke-width="4" stroke-linecap="round"/><path d="M236.03787,149.1018h-9.28317h1.42859" stroke="#ffffff" stroke-width="4" stroke-linecap="round"/><path d="M252.36176,159.84254l0.79451,0.01415c0,0 -9.21918,0.33029 -9.21918,-5.81141c0,-3.67354 0,-14.33985 0,-14.33985" data-paper-data="{&quot;index&quot;:null}" stroke="#ffffff" stroke-width="4" stroke-linecap="round"/><path d="M251.71081,149.1018h1.50945h-9.28317" data-paper-data="{&quot;index&quot;:null}" stroke="#ffffff" stroke-width="4" stroke-linecap="round"/><path d="M216.66669,149.47619c0,-12.88664 10.44669,-23.33334 23.33334,-23.33334c12.88664,0 23.33333,10.44669 23.33333,23.33334c0,12.88664 -10.44669,23.33333 -23.33333,23.33333c-12.88664,0 -23.33334,-10.44669 -23.33334,-23.33333z" stroke="#000000" stroke-width="6" stroke-linecap="butt"/><path d="M216.6667,149.43336c0,-12.88664 10.44669,-23.33334 23.33334,-23.33334c12.88664,0 23.33333,10.44669 23.33333,23.33334c0,12.88664 -10.44669,23.33333 -23.33333,23.33333c-12.88664,0 -23.33334,-10.44669 -23.33334,-23.33333z" stroke="#ffffff" stroke-width="4" stroke-linecap="butt"/><path d="M250.93513,179.17127h7.28232c-4.92699,0 -35.70867,0 -35.70867,0h5.04809" stroke="#000000" stroke-width="6" stroke-linecap="round"/><path d="M240.24474,179.90101v20.34835" stroke="#000000" stroke-width="6" stroke-linecap="round"/><path d="M227.55687,189.90464h-5.04809c0,0 30.78168,0 35.70867,0h-7.28232" stroke="#000000" stroke-width="6" stroke-linecap="round"/><path d="M250.93513,200.70005h7.28232c-4.92699,0 -35.70867,0 -35.70867,0h5.04809" stroke="#000000" stroke-width="6" stroke-linecap="round"/><path d="M227.55687,179.17127h-4.12592c0,0 28.93734,0 33.86433,0h-6.36015" stroke="#ffffff" stroke-width="4" stroke-linecap="round"/><path d="M240.24474,200.15412v-20.25311" stroke="#ffffff" stroke-width="4" stroke-linecap="round"/><path d="M250.93513,189.90464h6.36015c-4.92699,0 -33.86433,0 -33.86433,0h4.12592" stroke="#ffffff" stroke-width="4" stroke-linecap="round"/><path d="M250.93513,200.70005h6.36015c-4.92699,0 -33.86433,0 -33.86433,0h4.12592" stroke="#ffffff" stroke-width="4" stroke-linecap="round"/><path d="M227.59664,210.63231h-5.06463c0,0 30.77812,0 35.6718,0h-7.38696" stroke="#000000" stroke-width="6" stroke-linecap="round"/><path d="M235.30921,211.20384c0,0 0,12.44652 0,16.7332c0,7.16676 -12.7324,6.78134 -12.7324,6.78134l1.9806,-0.01651" stroke="#000000" stroke-width="6" stroke-linecap="round"/><path d="M225.51316,222.16849h-3.01802h12.31407" stroke="#000000" stroke-width="6" stroke-linecap="round"/><path d="M256.14225,234.70187l1.98059,0.01651c0,0 -12.7324,0.38542 -12.7324,-6.78134c0,-4.28666 0,-16.7332 0,-16.7332" data-paper-data="{&quot;index&quot;:null}" stroke="#000000" stroke-width="6" stroke-linecap="round"/><path d="M255.31149,222.16849h2.89302h-12.81407" data-paper-data="{&quot;index&quot;:null}" stroke="#000000" stroke-width="6" stroke-linecap="round"/><path d="M250.81685,210.63231h6.31715c-4.89368,0 -33.63538,0 -33.63538,0h4.09802" stroke="#ffffff" stroke-width="4" stroke-linecap="round"/><path d="M235.30921,211.20384c0,0 0,12.44652 0,16.7332c0,7.16676 -11.76579,6.78134 -11.76579,6.78134l1.01399,-0.01651" stroke="#ffffff" stroke-width="4" stroke-linecap="round"/><path d="M235.3092,222.16849h-11.84745h1.82321" stroke="#ffffff" stroke-width="4" stroke-linecap="round"/><path d="M256.14225,234.70187l1.01398,0.01651c0,0 -11.76579,0.38542 -11.76579,-6.78134c0,-4.28666 0,-16.7332 0,-16.7332" data-paper-data="{&quot;index&quot;:null}" stroke="#ffffff" stroke-width="4" stroke-linecap="round"/><path d="M255.31149,222.16849h1.92641h-11.84746" data-paper-data="{&quot;index&quot;:null}" stroke="#ffffff" stroke-width="4" stroke-linecap="round"/><path d="M218.31446,189.23924v3.88512v-16.28572v5.27542" stroke="#000000" stroke-width="6" stroke-linecap="round"/><path d="M218.31446,189.23925v3.12813v-14.77173v4.51841" stroke="#ffffff" stroke-width="4" stroke-linecap="round"/><path d="M262.45732,182.25692v-5.27542v16.28572v-3.88512" stroke="#000000" stroke-width="6" stroke-linecap="round"/><path d="M262.45732,182.25692v-4.51842v14.77173v-3.12813" stroke="#ffffff" stroke-width="4" stroke-linecap="round"/></g></g></svg>