<svg version="1.1" xmlns="http://www.w3.org/2000/svg" xmlns:xlink="http://www.w3.org/1999/xlink" width="52.66667" height="86.33333" viewBox="0,0,52.66667,86.33333"><g transform="translate(-213.66666,-136)"><g data-paper-data="{&quot;isPaintingLayer&quot;:true}" fill="none" fill-rule="nonzero" stroke-linejoin="miter" stroke-miterlimit="10" stroke-dasharray="" stroke-dashoffset="0" style="mix-blend-mode: normal"><path d="M216.66667,162.33334c0,-12.88664 10.44669,-23.33334 23.33334,-23.33334c12.88664,0 23.33333,10.44669 23.33333,23.33334c0,12.88664 -10.44669,23.33333 -23.33333,23.33333c-12.88664,0 -23.33334,-10.44669 -23.33334,-23.33333z" stroke="#000000" stroke-width="6" stroke-linecap="butt"/><path d="M239.75616,187v34.88889v-2.55556" stroke="#000000" stroke-width="6" stroke-linecap="round"/><path d="M247.64505,191.44445v-2.55555v17.77778v-3.11112" stroke="#000000" stroke-width="6" stroke-linecap="round"/><path d="M231.97838,191.22222v-2.33334v17.77778v-2.77777" stroke="#000000" stroke-width="6" stroke-linecap="round"/><path d="M239.71894,149.85746l5.62927,-2.05872l-20.48792,7.49914l3.00775,-1.12922" stroke="#000000" stroke-width="6" stroke-linecap="round"/><path d="M240.15544,162.25961l0.08061,-7.73891l-0.23032,25.10541l0.04606,-8.61415" stroke="#000000" stroke-width="6" stroke-linecap="round"/><path d="M246.99769,161.22197l-0.51159,-4.51682l1.91056,14.91656l-0.60978,-4.57743" stroke="#000000" stroke-width="6" stroke-linecap="round"/><path d="M232.38441,166.71382l-0.63998,4.79032l1.88565,-14.63177l-0.54645,4.46257" stroke="#000000" stroke-width="6" stroke-linecap="round"/><path d="M250.72334,153.34187l4.51791,1.84063l-13.97698,-5.62033" stroke="#000000" stroke-width="6" stroke-linecap="round"/><path d="M227.86803,154.16867l-1.94471,0.68628l18.33387,-6.63193l-4.53825,1.63443" stroke="#ffffff" stroke-width="4" stroke-linecap="round"/><path d="M240.15544,162.25961l0.08061,-6.58729l-0.23032,22.80217l0.04606,-7.46253" stroke="#ffffff" stroke-width="4" stroke-linecap="round"/><path d="M246.99769,161.22197l-0.45096,-3.3652l1.72872,12.55271l-0.48854,-3.3652" stroke="#ffffff" stroke-width="4" stroke-linecap="round"/><path d="M233.08363,161.33494l0.42522,-3.25034l-1.58258,12.26791l0.45815,-3.63869" stroke="#ffffff" stroke-width="4" stroke-linecap="round"/><path d="M250.72334,153.34186l3.45487,1.3977l-12.91394,-5.17739" stroke="#ffffff" stroke-width="4" stroke-linecap="round"/><path d="M216.66667,162.33334c0,-12.88664 10.44669,-23.33334 23.33334,-23.33334c12.88664,0 23.33333,10.44669 23.33333,23.33334c0,12.88664 -10.44669,23.33333 -23.33333,23.33333c-12.88664,0 -23.33334,-10.44669 -23.33334,-23.33333z" stroke="#ffffff" stroke-width="4" stroke-linecap="butt"/><path d="M239.75616,187v34v-1.66667" stroke="#ffffff" stroke-width="4" stroke-linecap="round"/><path d="M247.64505,191.44445v-1.66666v16v-2.22223" stroke="#ffffff" stroke-width="4" stroke-linecap="round"/><path d="M231.97838,191.22222v-1.44445v16v-1.88888" stroke="#ffffff" stroke-width="4" stroke-linecap="round"/></g></g></svg>