<svg version="1.1" xmlns="http://www.w3.org/2000/svg" xmlns:xlink="http://www.w3.org/1999/xlink" width="52.66667" height="112.99463" viewBox="0,0,52.66667,112.99463"><g transform="translate(-213.66669,-123.14286)"><g data-paper-data="{&quot;isPaintingLayer&quot;:true}" fill="none" fill-rule="nonzero" stroke-linejoin="miter" stroke-miterlimit="10" stroke-dasharray="" stroke-dashoffset="0" style="mix-blend-mode: normal"><path d="M250.50003,228.55294v3.42857v-13.85714v4.57142" stroke="#000000" stroke-width="6" stroke-linecap="round"/><path d="M216.66669,149.4762c0,-12.88664 10.44669,-23.33334 23.33334,-23.33334c12.88664,0 23.33333,10.44669 23.33333,23.33334c0,12.88664 -10.44669,23.33333 -23.33333,23.33333c-12.88664,0 -23.33334,-10.44669 -23.33334,-23.33333z" stroke="#000000" stroke-width="6" stroke-linecap="butt"/><path d="M216.6667,149.43336c0,-12.88664 10.44669,-23.33334 23.33334,-23.33334c12.88664,0 23.33333,10.44669 23.33333,23.33334c0,12.88664 -10.44669,23.33333 -23.33333,23.33333c-12.88664,0 -23.33334,-10.44669 -23.33334,-23.33333z" stroke="#ffffff" stroke-width="4" stroke-linecap="butt"/><path d="M230.40275,138.12365h-4.25706c0,0 24.59316,0 28.42295,0h-5.99375" stroke="#000000" stroke-width="6" stroke-linecap="round"/><path d="M240.26516,138.63517v20.52676" stroke="#000000" stroke-width="6" stroke-linecap="round"/><path d="M230.40275,145.64722h-4.25706c0,0 24.59316,0 28.42295,0h-5.99375" stroke="#000000" stroke-width="6" stroke-linecap="round"/><path d="M230.40275,160.78134h-4.25706c0,0 24.59316,0 28.42295,0h-5.99375" stroke="#000000" stroke-width="6" stroke-linecap="round"/><path d="M248.57488,153.21429h5.99375c-3.82979,0 -28.42295,0 -28.42295,0h4.25706" stroke="#000000" stroke-width="6" stroke-linecap="round"/><path d="M230.40275,138.12365h-3.20711c0,0 22.49327,0 26.32307,0h-4.94381" stroke="#ffffff" stroke-width="4" stroke-linecap="round"/><path d="M240.26516,138.63517v20.52676" stroke="#ffffff" stroke-width="4" stroke-linecap="round"/><path d="M248.5749,145.64722h4.94381c-3.8298,0 -26.32307,0 -26.32307,0h3.20711" stroke="#ffffff" stroke-width="4" stroke-linecap="round"/><path d="M248.5749,160.78134h4.94381c-3.8298,0 -26.32307,0 -26.32307,0h3.20711" stroke="#ffffff" stroke-width="4" stroke-linecap="round"/><path d="M248.57489,153.21429h4.94381c-3.8298,0 -26.32307,0 -26.32307,0h3.20711" stroke="#ffffff" stroke-width="4" stroke-linecap="round"/><path d="M251.14347,178.83794h7.28232c-4.92699,0 -35.70867,0 -35.70867,0h5.04809" stroke="#000000" stroke-width="6" stroke-linecap="round"/><path d="M240.45308,179.56768v56.56981v-5.34646" stroke="#000000" stroke-width="6" stroke-linecap="round"/><path d="M251.14347,189.57131h7.28232c-4.92699,0 -35.70867,0 -35.70867,0h5.04809" stroke="#000000" stroke-width="6" stroke-linecap="round"/><path d="M227.76521,211.16212h-5.04809c0,0 30.78168,0 35.70867,0h-7.28232" stroke="#000000" stroke-width="6" stroke-linecap="round"/><path d="M251.14347,200.36672h7.28232c-4.92699,0 -35.70867,0 -35.70867,0h5.04809" stroke="#000000" stroke-width="6" stroke-linecap="round"/><path d="M227.7652,178.83794h-4.12592c0,0 28.93734,0 33.86433,0h-6.36015" stroke="#ffffff" stroke-width="4" stroke-linecap="round"/><path d="M240.45308,231.69579v3.4417v-55.56981" stroke="#ffffff" stroke-width="4" stroke-linecap="round"/><path d="M251.14346,189.57131h6.36015c-4.92699,0 -33.86433,0 -33.86433,0h4.12592" stroke="#ffffff" stroke-width="4" stroke-linecap="round"/><path d="M251.14347,211.16212h6.36015c-4.92699,0 -33.86433,0 -33.86433,0h4.12592" stroke="#ffffff" stroke-width="4" stroke-linecap="round"/><path d="M251.14347,200.36672h6.36015c-4.92699,0 -33.86433,0 -33.86433,0h4.12592" stroke="#ffffff" stroke-width="4" stroke-linecap="round"/><path d="M250.50003,222.69579v-3.71428v12.14285v-2.57143" stroke="#ffffff" stroke-width="4" stroke-linecap="round"/><path d="M230.50003,222.69579v-4.57144v13.85715v-3.42857" stroke="#000000" stroke-width="6" stroke-linecap="round"/><path d="M230.50003,222.69579v-3.71429v12.14286v-2.57143" stroke="#ffffff" stroke-width="4" stroke-linecap="round"/></g></g></svg>