<svg version="1.1" xmlns="http://www.w3.org/2000/svg" xmlns:xlink="http://www.w3.org/1999/xlink" width="31.13724" height="38.75638" viewBox="0,0,31.13724,38.75638"><g transform="translate(-224.43138,-166.98077)"><g data-paper-data="{&quot;isPaintingLayer&quot;:true}" fill="none" fill-rule="nonzero" stroke-linecap="round" stroke-linejoin="miter" stroke-miterlimit="10" stroke-dasharray="" stroke-dashoffset="0" style="mix-blend-mode: normal"><path d="M249.50579,197.03778c0,0 -0.17903,5.15121 -8.77028,5.69937c-4.93541,0.06534 -10.41959,-0.46599 -10.49442,-4.74615c0.38708,-5.67556 10.20012,-3.66882 15.29153,-5.15181c4.5781,-1.33348 4.10558,-4.39479 4.09171,-5.71995c-3.26989,0 -21.34417,0 -21.34417,0h2.73825" stroke="#000000" stroke-width="6"/><path d="M231.19632,169.98077h-3.76494c0,0 21.75017,0 25.13724,0h-5.30087" stroke="#000000" stroke-width="6"/><path d="M231.19632,175.68924h-3.76494c0,0 21.75017,0 25.13724,0h-5.30087" stroke="#000000" stroke-width="6"/><path d="M231.19632,187.17216h-3.76494c0,0 20.98094,-0.07693 24.36801,-0.07693l-4.53164,0.07693" stroke="#000000" stroke-width="6"/><path d="M231.19632,181.4307h-3.76494c0,0 21.75017,0 25.13724,0h-5.30087" stroke="#000000" stroke-width="6"/><path d="M231.19632,169.98077h-2.83637c0,0 19.89303,0 23.2801,0h-4.3723" stroke="#ffffff" stroke-width="4"/><path d="M247.26775,175.68924h4.3723c-3.38707,0 -23.2801,0 -23.2801,0h2.83637" stroke="#ffffff" stroke-width="4"/><path d="M247.26775,181.4307h4.3723c-3.38707,0 -23.2801,0 -23.2801,0h2.83637" stroke="#ffffff" stroke-width="4"/><path d="M239.91862,187.087v-16.67208" stroke="#ffffff" stroke-width="4"/><path d="M249.58272,197.11471c0,0 -0.17903,5.15121 -8.77028,5.69936c-4.93541,0.06534 -10.41959,-0.46599 -10.49442,-4.74616c0.38708,-5.67556 10.20012,-3.66881 15.29153,-5.15181c4.5781,-1.33348 4.10558,-4.39479 4.09171,-5.71996c-3.26989,0 -21.34417,0 -21.34417,0h2.73825" stroke="#ffffff" stroke-width="4"/></g></g></svg>