<svg version="1.1" xmlns="http://www.w3.org/2000/svg" xmlns:xlink="http://www.w3.org/1999/xlink" width="37.51098" height="32.85345" viewBox="0,0,37.51098,32.85345"><g transform="translate(-218.72368,-163.82451)"><g data-paper-data="{&quot;isPaintingLayer&quot;:true}" fill="none" fill-rule="nonzero" stroke-linejoin="miter" stroke-miterlimit="10" stroke-dasharray="" stroke-dashoffset="0" style="mix-blend-mode: normal"><path d="M244.03303,193.67796h4.46697h-16.83333h4.73323" stroke="#000000" stroke-width="6" stroke-linecap="round"/><path d="M251.42255,169.9887h4.77044c0,0 -22.11247,0 -27.19299,0c-4.6495,0 -7.27632,-4.33333 -7.27632,-4.33333l1.06799,1.38629" stroke="#000000" stroke-width="6" stroke-linecap="round"/><path d="M251.38089,186.03388h4.85377h-32.55265h4.87019" stroke="#000000" stroke-width="6" stroke-linecap="round"/><path d="M231.98912,185.98936v-15.93843h15.93843v15.93843z" stroke="#000000" stroke-width="6" stroke-linecap="butt"/><path d="" stroke="#000000" stroke-width="6" stroke-linecap="round"/><path d="" stroke="#000000" stroke-width="6" stroke-linecap="round"/><path d="" stroke="#ffffff" stroke-width="4" stroke-linecap="round"/><path d="" stroke="#ffffff" stroke-width="4" stroke-linecap="round"/><path d="M251.38089,186.03388h3.93711h-30.71932h3.95352" stroke="#ffffff" stroke-width="4" stroke-linecap="round"/><path d="M251.38089,170.00641h3.93711c0,0 -21.27913,0 -26.35966,0c-4.6495,0 -6.69299,-3.66667 -6.69299,-3.66667l0.60965,0.78526" stroke="#ffffff" stroke-width="4" stroke-linecap="round"/><path d="M231.98912,185.98936v-15.93843h15.93843v15.93843z" stroke="#ffffff" stroke-width="4" stroke-linecap="butt"/><path d="M244.03304,193.67796h3.5503h-15h3.81657" stroke="#ffffff" stroke-width="4" stroke-linecap="round"/></g></g></svg>