<svg viewBox="NaN NaN NaN NaN" xmlns:xlink="http://www.w3.org/1999/xlink" xmlns="http://www.w3.org/2000/svg" version="1.1" style="max-height: 500px" width="NaN" height="NaN"><g transform="translate(-224.43138,-166.98077)"><g style="mix-blend-mode: normal" stroke-dashoffset="0" stroke-dasharray="" stroke-miterlimit="10" stroke-linejoin="miter" stroke-linecap="round" fill-rule="nonzero" fill="none" data-paper-data="{&quot;isPaintingLayer&quot;:true}"><path stroke-width="6" stroke="#000000" d="M231.19632,169.98077h-3.76494c0,0 21.75017,0 25.13724,0h-5.30087"/><path stroke-width="6" stroke="#000000" d="M239.91862,170.43315v18.15385"/><path stroke-width="6" stroke="#000000" d="M231.19632,176.63462h-3.76494c0,0 21.75017,0 25.13724,0h-5.30087"/><path stroke-width="6" stroke="#000000" d="M231.19632,190.01923h-3.76494c0,0 21.75017,0 25.13724,0h-5.30087"/><path stroke-width="6" stroke="#000000" d="M231.19632,183.32693h-3.76494c0,0 21.75017,0 25.13724,0h-5.30087"/><path stroke-width="4" stroke="#ffffff" d="M231.19632,169.98077h-2.83637c0,0 19.89303,0 23.2801,0h-4.3723"/><path stroke-width="4" stroke="#ffffff" d="M239.91862,170.43315v18.15385"/><path stroke-width="4" stroke="#ffffff" d="M231.19632,176.63462h-2.83637c0,0 19.89303,0 23.2801,0h-4.3723"/><path stroke-width="4" stroke="#ffffff" d="M231.19632,190.01923h-2.83637c0,0 19.89303,0 23.2801,0h-4.3723"/><path stroke-width="4" stroke="#ffffff" d="M231.19632,183.32693h-2.83637c0,0 19.89303,0 23.2801,0h-4.3723"/></g></g></svg>