<svg version="1.1" xmlns="http://www.w3.org/2000/svg" xmlns:xlink="http://www.w3.org/1999/xlink" width="44" height="44" viewBox="0,0,44,44"><g transform="translate(-218,-158)"><g data-paper-data="{&quot;isPaintingLayer&quot;:true}" fill="none" fill-rule="nonzero" stroke-linejoin="miter" stroke-miterlimit="10" stroke-dasharray="" stroke-dashoffset="0" style="mix-blend-mode: normal"><path d="M239.67864,180.19507l-15.35727,9.85986" data-paper-data="{&quot;index&quot;:null}" stroke="#000000" stroke-width="6" stroke-linecap="round"/><path d="M240.19637,179.94507l15.35727,9.85986" stroke="#000000" stroke-width="6" stroke-linecap="round"/><path d="M240,179.875l0,-18.25" stroke="#000000" stroke-width="6" stroke-linecap="round"/><path d="M221,180c0,-10.49341 8.50659,-19 19,-19c10.49341,0 19,8.50659 19,19c0,10.49341 -8.50659,19 -19,19c-10.49341,0 -19,-8.50659 -19,-19z" stroke="#000000" stroke-width="6" stroke-linecap="butt"/><path d="" stroke="#000000" stroke-width="6" stroke-linecap="round"/><path d="" stroke="#000000" stroke-width="6" stroke-linecap="round"/><path d="" stroke="#ffffff" stroke-width="4" stroke-linecap="round"/><path d="" stroke="#ffffff" stroke-width="4" stroke-linecap="round"/><path d="M221,180c0,-10.49341 8.50659,-19 19,-19c10.49341,0 19,8.50659 19,19c0,10.49341 -8.50659,19 -19,19c-10.49341,0 -19,-8.50659 -19,-19z" stroke="#ffffff" stroke-width="4" stroke-linecap="butt"/><path d="M240,180v-18.25" stroke="#ffffff" stroke-width="4" stroke-linecap="round"/><path d="M255.92864,190.05493l-15.35727,-9.85986" stroke="#ffffff" stroke-width="4" stroke-linecap="round"/><path d="M239.42864,180.32007l-15.35727,9.85986" data-paper-data="{&quot;index&quot;:null}" stroke="#ffffff" stroke-width="4" stroke-linecap="round"/></g></g></svg>