<svg version="1.1" xmlns="http://www.w3.org/2000/svg" xmlns:xlink="http://www.w3.org/1999/xlink" width="31.13724" height="26.03846" viewBox="0,0,31.13724,26.03846"><g transform="translate(-224.43138,-166.98077)"><g data-paper-data="{&quot;isPaintingLayer&quot;:true}" fill="none" fill-rule="nonzero" stroke-linecap="round" stroke-linejoin="miter" stroke-miterlimit="10" stroke-dasharray="" stroke-dashoffset="0" style="mix-blend-mode: normal"><path d="M231.19632,169.98077h-3.76494c0,0 21.75017,0 25.13724,0h-5.30087" stroke="#000000" stroke-width="6"/><path d="M239.91862,170.43315v18.15385" stroke="#000000" stroke-width="6"/><path d="M231.19632,176.63462h-3.76494c0,0 21.75017,0 25.13724,0h-5.30087" stroke="#000000" stroke-width="6"/><path d="M231.19632,190.01923h-3.76494c0,0 21.75017,0 25.13724,0h-5.30087" stroke="#000000" stroke-width="6"/><path d="M231.19632,183.32693h-3.76494c0,0 21.75017,0 25.13724,0h-5.30087" stroke="#000000" stroke-width="6"/><path d="M231.19632,169.98077h-2.83637c0,0 19.89303,0 23.2801,0h-4.3723" stroke="#ffffff" stroke-width="4"/><path d="M239.91862,170.43315v18.15385" stroke="#ffffff" stroke-width="4"/><path d="M231.19632,176.63462h-2.83637c0,0 19.89303,0 23.2801,0h-4.3723" stroke="#ffffff" stroke-width="4"/><path d="M231.19632,190.01923h-2.83637c0,0 19.89303,0 23.2801,0h-4.3723" stroke="#ffffff" stroke-width="4"/><path d="M231.19632,183.32693h-2.83637c0,0 19.89303,0 23.2801,0h-4.3723" stroke="#ffffff" stroke-width="4"/></g></g></svg>