<svg version="1.1" xmlns="http://www.w3.org/2000/svg" xmlns:xlink="http://www.w3.org/1999/xlink" width="44" height="44" viewBox="0,0,44,44"><g transform="translate(-218,-158)"><g data-paper-data="{&quot;isPaintingLayer&quot;:true}" fill="none" fill-rule="nonzero" stroke-linejoin="miter" stroke-miterlimit="10" stroke-dasharray="" stroke-dashoffset="0" style="mix-blend-mode: normal"><path d="M240,187.5v4.375v-23.875v4.875" stroke="#000000" stroke-width="6" stroke-linecap="round"/><path d="M221,180c0,-10.49341 8.50659,-19 19,-19c10.49341,0 19,8.50659 19,19c0,10.49341 -8.50659,19 -19,19c-10.49341,0 -19,-8.50659 -19,-19z" stroke="#000000" stroke-width="6" stroke-linecap="butt"/><path d="" stroke="#000000" stroke-width="6" stroke-linecap="round"/><path d="" stroke="#000000" stroke-width="6" stroke-linecap="round"/><path d="" stroke="#ffffff" stroke-width="4" stroke-linecap="round"/><path d="" stroke="#ffffff" stroke-width="4" stroke-linecap="round"/><path d="M221,180c0,-10.49341 8.50659,-19 19,-19c10.49341,0 19,8.50659 19,19c0,10.49341 -8.50659,19 -19,19c-10.49341,0 -19,-8.50659 -19,-19z" stroke="#ffffff" stroke-width="4" stroke-linecap="butt"/><path d="M240,187.5v3.5v-22v3.875" stroke="#ffffff" stroke-width="4" stroke-linecap="round"/></g></g></svg>