<svg version="1.1" xmlns="http://www.w3.org/2000/svg" xmlns:xlink="http://www.w3.org/1999/xlink" width="28.56731" height="30.48195" viewBox="0,0,28.56731,30.48195"><g transform="translate(-225.75507,-163.36404)"><g data-paper-data="{&quot;isPaintingLayer&quot;:true}" fill="none" fill-rule="nonzero" stroke-linecap="round" stroke-linejoin="miter" stroke-miterlimit="10" stroke-dasharray="" stroke-dashoffset="0" style="mix-blend-mode: normal"><path d="M239.71186,167.9692l4.88811,-1.78767l-17.79046,6.5118l2.61175,-0.98054" stroke="#000000" stroke-width="6"/><path d="M240.09089,178.73847l0.07,-6.72l-0.2,21.8l0.04,-7.48" stroke="#000000" stroke-width="6"/><path d="M246.03228,177.83744l-0.44423,-3.92213l1.65901,12.95263l-0.52949,-3.97476" stroke="#000000" stroke-width="6"/><path d="M233.34301,182.60623l-0.55572,4.15962l1.63738,-12.70533l-0.4745,3.87502" stroke="#000000" stroke-width="6"/><path d="M249.26741,170.99485l3.92308,1.59829l-12.13675,-4.88035" stroke="#000000" stroke-width="6"/><path d="" stroke="#000000" stroke-width="6"/><path d="" stroke="#000000" stroke-width="6"/><path d="" stroke="#ffffff" stroke-width="4"/><path d="" stroke="#ffffff" stroke-width="4"/><path d="M229.42126,171.71279l-1.68867,0.59592l15.92001,-5.75876l-3.94074,1.41924" stroke="#ffffff" stroke-width="4"/><path d="M240.09089,178.73847l0.07,-5.72l-0.2,19.8l0.04,-6.48" stroke="#ffffff" stroke-width="4"/><path d="M246.03228,177.83744l-0.39159,-2.92213l1.50111,10.9l-0.42422,-2.92213" stroke="#ffffff" stroke-width="4"/><path d="M233.95017,177.93554l0.36923,-2.82239l-1.37422,10.6527l0.39783,-3.15962" stroke="#ffffff" stroke-width="4"/><path d="M249.26741,170.99484l3,1.21368l-11.21367,-4.49573" stroke="#ffffff" stroke-width="4"/></g></g></svg>