<svg version="1.1" xmlns="http://www.w3.org/2000/svg" xmlns:xlink="http://www.w3.org/1999/xlink" width="31.20868" height="24.23539" viewBox="0,0,31.20868,24.23539"><g transform="translate(-224.40818,-167.8823)"><g data-paper-data="{&quot;isPaintingLayer&quot;:true}" fill="none" fill-rule="nonzero" stroke-linecap="round" stroke-linejoin="miter" stroke-miterlimit="10" stroke-dasharray="" stroke-dashoffset="0" style="mix-blend-mode: normal"><path d="M247.24456,170.8823h5.3723c-3.38707,0 -25.20868,0 -25.20868,0h3.76494" stroke="#000000" stroke-width="6"/><path d="M236.51123,171.31494c0,0 0,9.42175 0,12.66667c0,5.42508 -9.07205,5.13333 -9.07205,5.13333l1.63038,-0.0125" stroke="#000000" stroke-width="6"/><path d="M229.64456,179.61494h-2.2619h9.12857" stroke="#000000" stroke-width="6"/><path d="M250.93044,189.10244l1.63038,0.0125c0,0 -9.07205,0.29175 -9.07205,-5.13333c0,-3.24491 0,-12.66667 0,-12.66667" data-paper-data="{&quot;index&quot;:null}" stroke="#000000" stroke-width="6"/><path d="M243.48877,179.61494h9.12857h-2.2619" data-paper-data="{&quot;index&quot;:null}" stroke="#000000" stroke-width="6"/><path d="M247.24456,170.8823h4.3723c-3.38707,0 -23.28011,0 -23.28011,0h2.83637" stroke="#ffffff" stroke-width="4"/><path d="M236.51123,171.31494c0,0 0,9.42175 0,12.66667c0,5.42508 -8.14348,5.13333 -8.14348,5.13333l0.70181,-0.0125" stroke="#ffffff" stroke-width="4"/><path d="M229.57313,179.61494h-1.2619h8.2" stroke="#ffffff" stroke-width="4"/><path d="M250.93044,189.10244l0.70181,0.0125c0,0 -8.14348,0.29175 -8.14348,-5.13333c0,-3.24491 0,-12.66667 0,-12.66667" data-paper-data="{&quot;index&quot;:null}" stroke="#ffffff" stroke-width="4"/><path d="M243.48877,179.61494h8.2h-1.33333" data-paper-data="{&quot;index&quot;:null}" stroke="#ffffff" stroke-width="4"/></g></g></svg>