<svg version="1.1" xmlns="http://www.w3.org/2000/svg" xmlns:xlink="http://www.w3.org/1999/xlink" width="44" height="44" viewBox="0,0,44,44"><g transform="translate(-218,-158)"><g data-paper-data="{&quot;isPaintingLayer&quot;:true}" fill="none" fill-rule="nonzero" stroke-linejoin="miter" stroke-miterlimit="10" stroke-dasharray="" stroke-dashoffset="0" style="mix-blend-mode: normal"><path d="M224.54042,172.40261c0,-4.27016 3.46166,-7.73182 7.73182,-7.73182c4.27016,0 7.73182,3.46165 7.73182,7.73182c0,4.27016 -3.46166,7.73182 -7.73182,7.73182c-4.27016,0 -7.73182,-3.46166 -7.73182,-7.73182z" stroke="#000000" stroke-width="6" stroke-linecap="butt"/><path d="M224.6182,187.70817c0,-4.18732 3.3945,-7.58182 7.58182,-7.58182c4.18732,0 7.58182,3.3945 7.58182,7.58182c0,4.18732 -3.3945,7.58182 -7.58182,7.58182c-4.18732,0 -7.58182,-3.3945 -7.58182,-7.58182z" stroke="#000000" stroke-width="6" stroke-linecap="butt"/><path d="M239.94039,172.44183c0,-4.27016 3.46166,-7.73181 7.73182,-7.73181c4.27017,0 7.73182,3.46165 7.73182,7.73181c0,4.27016 -3.46166,7.73182 -7.73182,7.73182c-4.27016,0 -7.73182,-3.46166 -7.73182,-7.73182z" stroke="#000000" stroke-width="6" stroke-linecap="butt"/><path d="M240.01817,187.74739c0,-4.18732 3.3945,-7.58182 7.58182,-7.58182c4.18732,0 7.58182,3.3945 7.58182,7.58182c0,4.18732 -3.3945,7.58182 -7.58182,7.58182c-4.18732,0 -7.58182,-3.3945 -7.58182,-7.58182z" stroke="#000000" stroke-width="6" stroke-linecap="butt"/><path d="M221,180c0,-10.49341 8.50659,-19 19,-19c10.49341,0 19,8.50659 19,19c0,10.49341 -8.50659,19 -19,19c-10.49341,0 -19,-8.50659 -19,-19z" stroke="#000000" stroke-width="6" stroke-linecap="butt"/><path d="" stroke="#000000" stroke-width="6" stroke-linecap="round"/><path d="" stroke="#000000" stroke-width="6" stroke-linecap="round"/><path d="" stroke="#ffffff" stroke-width="4" stroke-linecap="round"/><path d="" stroke="#ffffff" stroke-width="4" stroke-linecap="round"/><path d="M221,180c0,-10.49341 8.50659,-19 19,-19c10.49341,0 19,8.50659 19,19c0,10.49341 -8.50659,19 -19,19c-10.49341,0 -19,-8.50659 -19,-19z" stroke="#ffffff" stroke-width="4" stroke-linecap="butt"/><path d="M224.54042,172.40261c0,-4.27016 3.46166,-7.73181 7.73182,-7.73181c4.27016,0 7.73182,3.46165 7.73182,7.73181c0,4.27016 -3.46166,7.73182 -7.73182,7.73182c-4.27016,0 -7.73182,-3.46166 -7.73182,-7.73182z" stroke="#ffffff" stroke-width="4" stroke-linecap="butt"/><path d="M224.6182,187.70817c0,-4.18732 3.3945,-7.58181 7.58182,-7.58181c4.18732,0 7.58182,3.39449 7.58182,7.58181c0,4.18732 -3.3945,7.58182 -7.58182,7.58182c-4.18732,0 -7.58182,-3.3945 -7.58182,-7.58182z" stroke="#ffffff" stroke-width="4" stroke-linecap="butt"/><path d="M239.94039,172.44183c0,-4.27016 3.46166,-7.73181 7.73182,-7.73181c4.27016,0 7.73182,3.46165 7.73182,7.73181c0,4.27016 -3.46166,7.73182 -7.73182,7.73182c-4.27016,0 -7.73182,-3.46166 -7.73182,-7.73182z" stroke="#ffffff" stroke-width="4" stroke-linecap="butt"/><path d="M240.01817,187.74739c0,-4.18732 3.3945,-7.58182 7.58182,-7.58182c4.18732,0 7.58182,3.3945 7.58182,7.58182c0,4.18732 -3.3945,7.58182 -7.58182,7.58182c-4.18732,0 -7.58182,-3.3945 -7.58182,-7.58182z" stroke="#ffffff" stroke-width="4" stroke-linecap="butt"/></g></g></svg>