<svg version="1.1" xmlns="http://www.w3.org/2000/svg" xmlns:xlink="http://www.w3.org/1999/xlink" width="44" height="44" viewBox="0,0,44,44"><g transform="translate(-218,-158)"><g data-paper-data="{&quot;isPaintingLayer&quot;:true}" fill="none" fill-rule="nonzero" stroke-linejoin="miter" stroke-miterlimit="10" stroke-dasharray="" stroke-dashoffset="0" style="mix-blend-mode: normal"><path d="M231.25732,169.89997c0,-4.81176 3.90071,-8.71247 8.71247,-8.71247c4.81176,0 8.71247,3.90071 8.71247,8.71247c0,4.81176 -3.90071,8.71247 -8.71247,8.71247c-4.81176,0 -8.71247,-3.90071 -8.71247,-8.71247z" stroke="#000000" stroke-width="6" stroke-linecap="butt"/><path d="M239.96979,185.20902c0,-4.81176 3.90071,-8.71247 8.71247,-8.71247c4.81176,0 8.71247,3.90071 8.71247,8.71247c0,4.81176 -3.90071,8.71246 -8.71247,8.71246c-4.81176,0 -8.71247,-3.9007 -8.71247,-8.71246z" stroke="#000000" stroke-width="6" stroke-linecap="butt"/><path d="M222.42039,185.20902c0,-4.81176 3.90071,-8.71247 8.71247,-8.71247c4.81176,0 8.71247,3.90071 8.71247,8.71247c0,4.81176 -3.90071,8.71246 -8.71247,8.71246c-4.81176,0 -8.71247,-3.9007 -8.71247,-8.71246z" stroke="#000000" stroke-width="6" stroke-linecap="butt"/><path d="M221,180c0,-10.49341 8.50659,-19 19,-19c10.49341,0 19,8.50659 19,19c0,10.49341 -8.50659,19 -19,19c-10.49341,0 -19,-8.50659 -19,-19z" stroke="#000000" stroke-width="6" stroke-linecap="butt"/><path d="" stroke="#000000" stroke-width="6" stroke-linecap="round"/><path d="" stroke="#000000" stroke-width="6" stroke-linecap="round"/><path d="" stroke="#ffffff" stroke-width="4" stroke-linecap="round"/><path d="" stroke="#ffffff" stroke-width="4" stroke-linecap="round"/><path d="M221,180c0,-10.49341 8.50659,-19 19,-19c10.49341,0 19,8.50659 19,19c0,10.49341 -8.50659,19 -19,19c-10.49341,0 -19,-8.50659 -19,-19z" stroke="#ffffff" stroke-width="4" stroke-linecap="butt"/><path d="M231.25732,169.89997c0,-4.81176 3.90071,-8.71247 8.71247,-8.71247c4.81176,0 8.71247,3.90071 8.71247,8.71247c0,4.81176 -3.90071,8.71247 -8.71247,8.71247c-4.81176,0 -8.71247,-3.90071 -8.71247,-8.71247z" stroke="#ffffff" stroke-width="4" stroke-linecap="butt"/><path d="M239.96979,185.20902c0,-4.81176 3.90071,-8.71247 8.71247,-8.71247c4.81176,0 8.71247,3.90071 8.71247,8.71247c0,4.81176 -3.90071,8.71247 -8.71247,8.71247c-4.81176,0 -8.71247,-3.90071 -8.71247,-8.71247z" stroke="#ffffff" stroke-width="4" stroke-linecap="butt"/><path d="M222.42039,185.20902c0,-4.81176 3.90071,-8.71247 8.71247,-8.71247c4.81176,0 8.71247,3.90071 8.71247,8.71247c0,4.81176 -3.90071,8.71247 -8.71247,8.71247c-4.81176,0 -8.71247,-3.90071 -8.71247,-8.71247z" stroke="#ffffff" stroke-width="4" stroke-linecap="butt"/></g></g></svg>