<svg version="1.1" xmlns="http://www.w3.org/2000/svg" xmlns:xlink="http://www.w3.org/1999/xlink" width="36.66554" height="33.97202" viewBox="0,0,36.66554,33.97202"><g transform="translate(-221.74118,-163.32315)"><g data-paper-data="{&quot;isPaintingLayer&quot;:true}" fill="none" fill-rule="nonzero" stroke-linejoin="miter" stroke-miterlimit="10" stroke-dasharray="" stroke-dashoffset="0" style="mix-blend-mode: normal"><path d="M251.46422,194.29518h4.85377h-32.55265h4.87019" stroke="#000000" stroke-width="6" stroke-linecap="round"/><path d="M251.46422,178.26771h4.85377h-32.55265h4.87019" stroke="#000000" stroke-width="6" stroke-linecap="round"/><path d="M232.07245,194.25066v-15.93843h15.93843v15.93843z" stroke="#000000" stroke-width="6" stroke-linecap="butt"/><path d="M254.625,186.28144h2.83334h-10.41667h2.66666" stroke="#000000" stroke-width="6" stroke-linecap="round"/><path d="M225.45833,186.28144h-2.91666h9.41667h-1.58334" stroke="#000000" stroke-width="6" stroke-linecap="round"/><path d="" stroke="#000000" stroke-width="6" stroke-linecap="round"/><path d="" stroke="#000000" stroke-width="6" stroke-linecap="round"/><path d="" stroke="#ffffff" stroke-width="4" stroke-linecap="round"/><path d="" stroke="#ffffff" stroke-width="4" stroke-linecap="round"/><path d="M225.78171,172.05465l-3.20628,0.88674l23.26937,-6.73656l-6.23297,1.84979" stroke="#000000" stroke-width="6" stroke-linecap="round"/><path d="M241.41526,167.78066l16.09263,5.05368l-5.05382,-1.54682" stroke="#000000" stroke-width="6" stroke-linecap="round"/><path d="M225.78171,172.05465l-2.26951,0.63674l21.39582,-6.15322l-5.29619,1.51646" stroke="#ffffff" stroke-width="4" stroke-linecap="round"/><path d="M252.45408,171.28752l4.03187,1.29682l-15.07069,-4.80368" stroke="#ffffff" stroke-width="4" stroke-linecap="round"/><path d="M228.63553,194.29518h-3.95352h30.71932h-3.93711" stroke="#ffffff" stroke-width="4" stroke-linecap="round"/><path d="M251.46422,178.26771h3.93711h-30.71932h3.95352" stroke="#ffffff" stroke-width="4" stroke-linecap="round"/><path d="M232.07245,194.25066v-15.93843h15.93843v15.93843z" stroke="#ffffff" stroke-width="4" stroke-linecap="butt"/><path d="M249.70833,186.28144h-2.66666h9.58333h-2" stroke="#ffffff" stroke-width="4" stroke-linecap="round"/><path d="M230.375,186.28144h1.58334h-8.50001h2" stroke="#ffffff" stroke-width="4" stroke-linecap="round"/></g></g></svg>