<svg version="1.1" xmlns="http://www.w3.org/2000/svg" xmlns:xlink="http://www.w3.org/1999/xlink" width="35.95029" height="43.67191" viewBox="0,0,35.95029,43.67191"><g transform="translate(-222.05767,-156.72568)"><g data-paper-data="{&quot;isPaintingLayer&quot;:true}" fill="none" fill-rule="nonzero" stroke-linejoin="miter" stroke-miterlimit="10" stroke-dasharray="" stroke-dashoffset="0" style="mix-blend-mode: normal"><path d="M239.91667,184.73092v15.66667v-4.51389" stroke="#000000" stroke-width="6" stroke-linecap="round"/><path d="M233.13175,192.07565l-2.83826,6.50715l4.41302,-10.23604l-2.15618,5.05844" stroke="#000000" stroke-width="6" stroke-linecap="round"/><path d="M247.36634,193.48854l-2.15618,-5.14178l4.32969,10.31937l-2.75493,-6.50715" data-paper-data="{&quot;index&quot;:null}" stroke="#000000" stroke-width="6" stroke-linecap="round"/><path d="M226.04621,165.45224l-3.13744,0.88674l22.76978,-6.73656l-6.09915,1.84979" stroke="#000000" stroke-width="6" stroke-linecap="round"/><path d="M241.34411,161.17825l15.74712,5.05368l-4.94531,-1.54682" stroke="#000000" stroke-width="6" stroke-linecap="round"/><path d="" stroke="#000000" stroke-width="6" stroke-linecap="round"/><path d="" stroke="#000000" stroke-width="6" stroke-linecap="round"/><path d="" stroke="#ffffff" stroke-width="4" stroke-linecap="round"/><path d="" stroke="#ffffff" stroke-width="4" stroke-linecap="round"/><path d="M226.04621,165.45224l-2.22078,0.63674l20.93645,-6.15322l-5.18248,1.51646" stroke="#ffffff" stroke-width="4" stroke-linecap="round"/><path d="M252.14593,164.68511l3.94531,1.29682l-14.74712,-4.80368" stroke="#ffffff" stroke-width="4" stroke-linecap="round"/><path d="M230.37928,184.18171h-4.23894h27.55265h-4.22521" stroke="#000000" stroke-width="6" stroke-linecap="round"/><path d="M230.37928,170.78014h-4.23894h27.55265h-4.22521" stroke="#000000" stroke-width="6" stroke-linecap="round"/><path d="M233.25311,184.14448v-13.32712h13.32712v13.32712z" stroke="#000000" stroke-width="6" stroke-linecap="butt"/><path d="M230.37929,184.18171h-3.30579h25.68636h-3.29206" stroke="#ffffff" stroke-width="4" stroke-linecap="round"/><path d="M249.46779,170.78014h3.29206h-25.68636h3.30579" stroke="#ffffff" stroke-width="4" stroke-linecap="round"/><path d="M233.25311,184.14448v-13.32712h13.32712v13.32712z" stroke="#ffffff" stroke-width="4" stroke-linecap="butt"/><path d="M239.91667,184.73092v14.66667v-3.51389" stroke="#ffffff" stroke-width="4" stroke-linecap="round"/><path d="M233.13176,192.07566l-2.4216,5.59048l3.57969,-8.48604l-1.73952,4.22511" stroke="#ffffff" stroke-width="4" stroke-linecap="round"/><path d="M247.36634,193.48854l-1.73952,-4.22511l3.57969,8.48604l-2.42159,-5.59049" data-paper-data="{&quot;index&quot;:null}" stroke="#ffffff" stroke-width="4" stroke-linecap="round"/></g></g></svg>