<svg version="1.1" xmlns="http://www.w3.org/2000/svg" xmlns:xlink="http://www.w3.org/1999/xlink" width="35.26041" height="38.66903" viewBox="0,0,35.26041,38.66903"><g transform="translate(-222.33133,-160.66399)"><g data-paper-data="{&quot;isPaintingLayer&quot;:true}" fill="none" fill-rule="nonzero" stroke-linecap="round" stroke-linejoin="miter" stroke-miterlimit="10" stroke-dasharray="" stroke-dashoffset="0" style="mix-blend-mode: normal"><path d="M249.25032,190.56679c0,0 0.32268,5.73476 -9.29314,5.76623c-4.86839,0.07142 -8.75627,-1.13292 -9.43894,-4.06107c-0.90837,-9.27365 18.80657,-3.11519 19.12006,-11.00185c-3.22549,0 -22.05436,0 -22.05436,0h3.70106" stroke="#000000" stroke-width="6"/><path d="M239.94445,181.03268v-16.50741" stroke="#000000" stroke-width="6"/><path d="M242.05556,163.66399h5.11111h-14.44444h5" stroke="#000000" stroke-width="6"/><path d="M251.98967,168.58514l3.53836,-0.91648l-12.5347,3.2129l4.79825,-1.22228" stroke="#000000" stroke-width="6"/><path d="M252.27228,175.28951l5.1004,-0.37344l-14.41203,0.97447l4.98958,-0.2885" stroke="#000000" stroke-width="6"/><path d="M232.06312,169.54816l4.79824,1.2992l-12.26974,-3.28982l3.2734,0.91648" data-paper-data="{&quot;index&quot;:null}" stroke="#000000" stroke-width="6"/><path d="M227.6508,175.28951l-5.1004,-0.37344l14.41203,1.05139l-4.98958,-0.36542" data-paper-data="{&quot;index&quot;:null}" stroke="#000000" stroke-width="6"/><path d="M249.25032,190.56679c0,0 0.32268,5.73476 -9.29314,5.76623c-4.86839,0.07142 -8.75627,-1.13292 -9.43894,-4.06107c-0.90837,-9.27365 18.80657,-3.11519 19.12006,-11.00185c-3.22549,0 -21.05436,0 -21.05436,0h2.70106" stroke="#ffffff" stroke-width="4"/><path d="M239.94445,181.03268v-16.50741" stroke="#ffffff" stroke-width="4"/><path d="M242.05556,163.66399h4.11111h-12.44444h4" stroke="#ffffff" stroke-width="4"/><path d="M251.98967,168.58514l2.53836,-0.68571l-10.61162,2.75135l3.87517,-0.99151" stroke="#ffffff" stroke-width="4"/><path d="M252.27228,175.28951l4.1004,-0.29651l-12.41203,0.89754l3.98958,-0.2885" stroke="#ffffff" stroke-width="4"/><path d="M231.9862,169.54816l3.87517,0.99151l-10.50051,-2.75135l2.42725,0.68571" data-paper-data="{&quot;index&quot;:null}" stroke="#ffffff" stroke-width="4"/><path d="M227.6508,175.28951l-4.1004,-0.29651l12.41203,0.89754l-3.98958,-0.2885" data-paper-data="{&quot;index&quot;:null}" stroke="#ffffff" stroke-width="4"/></g></g></svg>