<svg version="1.1" xmlns="http://www.w3.org/2000/svg" xmlns:xlink="http://www.w3.org/1999/xlink" width="32.05906" height="49.82439" viewBox="0,0,32.05906,49.82439"><g transform="translate(-223.9288,-155.17266)"><g data-paper-data="{&quot;isPaintingLayer&quot;:true}" fill="none" fill-rule="nonzero" stroke-linecap="round" stroke-linejoin="miter" stroke-miterlimit="10" stroke-dasharray="" stroke-dashoffset="0" style="mix-blend-mode: normal"><path d="M247.80327,189.48694l1.17144,-1.55902c0,0 -2.28392,4.04889 -6.67549,4.76764c-4.27256,0.68551 -10.64388,-1.45282 -11.21249,-8.63431c-0.38468,-5.70093 3.76056,-10.04328 8.98266,-10.23578c6.27535,-0.24829 9.00385,5.02761 9.00385,5.02761l-1.12834,-1.63657" stroke="#000000" stroke-width="6"/><path d="M247.48338,167.03558h5.50449c-3.48756,0 -26.05905,0 -26.05905,0h4.00632" stroke="#000000" stroke-width="6"/><path d="M239.98487,168.3828v4.09091" stroke="#000000" stroke-width="6"/><path d="M230.96181,159.85476l-2.55682,-1.89146l11.68549,8.58025l11.50451,-9l-2.49243,1.93242" stroke="#000000" stroke-width="6"/><path d="M236.23511,198.00397l2.83629,-2.28676l-8.53565,6.90593l2.53537,-2.06839" stroke="#000000" stroke-width="6"/><path d="M247.00925,200.57557l2.51454,2.08922l-8.53565,-6.90593l2.85712,2.26593" data-paper-data="{&quot;index&quot;:null}" stroke="#000000" stroke-width="6"/><path d="M247.88661,189.60249l0.67144,-0.89236c0,0 -1.86726,3.38223 -6.25883,4.10098c-4.27256,0.68551 -10.64388,-1.45282 -11.21249,-8.63431c-0.38468,-5.70093 3.76056,-10.04328 8.98266,-10.23578c6.27535,-0.24829 8.50385,4.19428 8.50385,4.19428l-0.545,-0.80324" stroke="#ffffff" stroke-width="4"/><path d="M247.48338,167.06779h4.58782c-3.48756,0 -24.14239,0 -24.14239,0h3.00632" stroke="#ffffff" stroke-width="4"/><path d="M239.98487,168.49835v4.09091" stroke="#ffffff" stroke-width="4"/><path d="M230.96181,159.88697l-1.89015,-1.39146l11.01883,8.08025l10.83785,-8.50001l-1.82576,1.43243" stroke="#ffffff" stroke-width="4"/><path d="M236.29761,198.18202l2.25296,-1.89093l-7.18149,5.86426l1.76453,-1.42256" stroke="#ffffff" stroke-width="4"/><path d="M247.00925,200.60779l1.76453,1.42256l-7.11898,-5.73926l2.19046,1.76593" data-paper-data="{&quot;index&quot;:null}" stroke="#ffffff" stroke-width="4"/></g></g></svg>