<svg version="1.1" xmlns="http://www.w3.org/2000/svg" xmlns:xlink="http://www.w3.org/1999/xlink" width="41.54115" height="41.5336" viewBox="0,0,41.54115,41.5336"><g transform="translate(-219.22943,-159.11507)"><g data-paper-data="{&quot;isPaintingLayer&quot;:true}" fill="none" fill-rule="nonzero" stroke-linejoin="miter" stroke-miterlimit="10" stroke-dasharray="" stroke-dashoffset="0" style="mix-blend-mode: normal"><path d="M250.79058,193.21673l1.43684,-1.97219c0,0 -2.97347,5.41133 -9.03934,6.40412c-5.9015,0.94685 -14.70192,-2.00672 -15.48732,-11.92619c-0.53134,-7.87444 5.1943,-13.87233 12.40735,-14.13823c8.66785,-0.34295 12.34601,6.85382 12.34601,6.85382l-1.46791,-2.16992" stroke="#000000" stroke-width="6" stroke-linecap="round"/><path d="M250.3487,162.11507h7.42187c-4.8172,0 -35.54115,0 -35.54115,0h5.26191" stroke="#000000" stroke-width="6" stroke-linecap="round"/><path d="M239.99136,163.97593v5.65059" stroke="#000000" stroke-width="6" stroke-linecap="round"/><path d="M250.90567,193.28574l0.92744,-1.23258c0,0 -2.57916,4.67173 -8.64505,5.6645c-5.9015,0.94685 -14.70192,-2.00672 -15.48732,-11.92619c-0.53134,-7.87444 5.1943,-13.87235 12.40735,-14.13823c8.66785,-0.34295 11.74597,5.79338 11.74597,5.79338l-0.75279,-1.10948" stroke="#ffffff" stroke-width="4" stroke-linecap="round"/><path d="M227.49134,162.15956h-4.1525c0,0 28.52961,0 33.34681,0h-6.33694" stroke="#ffffff" stroke-width="4" stroke-linecap="round"/><path d="M239.99136,164.13555v5.65059" stroke="#ffffff" stroke-width="4" stroke-linecap="round"/><path d="M236.15504,184.7646c0,-2.58203 2.09316,-4.67519 4.67519,-4.67519c2.58203,0 4.67519,2.09316 4.67519,4.67519c0,2.58203 -2.09316,4.67519 -4.67519,4.67519c-2.58203,0 -4.67519,-2.09316 -4.67519,-4.67519z" stroke="#000000" stroke-width="6" stroke-linecap="butt"/><path d="M236.15504,184.7646c0,-2.58203 2.09316,-4.67519 4.67519,-4.67519c2.58203,0 4.67519,2.09316 4.67519,4.67519c0,2.58203 -2.09316,4.67519 -4.67519,4.67519c-2.58203,0 -4.67519,-2.09316 -4.67519,-4.67519z" stroke="#ffffff" stroke-width="4" stroke-linecap="butt"/></g></g></svg>