<svg version="1.1" xmlns="http://www.w3.org/2000/svg" xmlns:xlink="http://www.w3.org/1999/xlink" width="35.02032" height="43.72765" viewBox="0,0,35.02032,43.72765"><g transform="translate(-222.52255,-157.23141)"><g data-paper-data="{&quot;isPaintingLayer&quot;:true}" fill="none" fill-rule="nonzero" stroke-linejoin="miter" stroke-miterlimit="10" stroke-dasharray="" stroke-dashoffset="0" style="mix-blend-mode: normal"><path d="M231.63889,176.20573c0,-4.74044 3.84288,-8.58334 8.58334,-8.58334c4.74044,0 8.58333,3.84288 8.58333,8.58334c0,4.74044 -3.84289,8.58333 -8.58333,8.58333c-4.74044,0 -8.58334,-3.84289 -8.58334,-8.58333z" stroke="#000000" stroke-width="6" stroke-linecap="butt"/><path d="M240.25222,190.35906l0.07,-6.72l-0.2,16.24444l0.04,-1.92444" stroke="#000000" stroke-width="6" stroke-linecap="round"/><path d="" stroke="#000000" stroke-width="6" stroke-linecap="round"/><path d="" stroke="#000000" stroke-width="6" stroke-linecap="round"/><path d="" stroke="#ffffff" stroke-width="4" stroke-linecap="round"/><path d="" stroke="#ffffff" stroke-width="4" stroke-linecap="round"/><path d="M240.25222,190.35906l0.07,-5.72l-0.2,14.24444l0.15111,-8.92444" stroke="#ffffff" stroke-width="4" stroke-linecap="round"/><path d="M230.80061,194.5503l-1.08909,3.43478l3.26704,-10.49791l-0.97174,3.2045" stroke="#000000" stroke-width="6" stroke-linecap="round"/><path d="M232.00681,190.69166l0.7312,-2.33143l-2.74059,8.80176l0.80318,-2.6117" stroke="#ffffff" stroke-width="4" stroke-linecap="round"/><path d="M239.63662,161.87366l6.16455,-1.75716l-22.4361,6.40068l3.29376,-0.96381" stroke="#000000" stroke-width="6" stroke-linecap="round"/><path d="M251.68742,164.84769l4.94752,1.57101l-15.30603,-4.79708" stroke="#000000" stroke-width="6" stroke-linecap="round"/><path d="M226.65883,165.55338l-2.12963,0.58575l20.07721,-5.6605l-4.96979,1.39503" stroke="#ffffff" stroke-width="4" stroke-linecap="round"/><path d="M251.68742,164.84768l3.7834,1.19297l-14.14191,-4.41902" stroke="#ffffff" stroke-width="4" stroke-linecap="round"/><path d="M231.63889,176.20573c0,-4.74044 3.84288,-8.58334 8.58334,-8.58334c4.74044,0 8.58333,3.84288 8.58333,8.58334c0,4.74044 -3.84289,8.58333 -8.58333,8.58333c-4.74044,0 -8.58334,-3.84289 -8.58334,-8.58333z" stroke="#ffffff" stroke-width="4" stroke-linecap="butt"/><path d="M248.79437,190.69166l-0.97174,-3.2045l3.26704,10.49791l-1.08909,-3.43478" data-paper-data="{&quot;index&quot;:null}" stroke="#000000" stroke-width="6" stroke-linecap="round"/><path d="M250.00057,194.5503l0.80318,2.61169l-2.74059,-8.80176l0.7312,2.33143" data-paper-data="{&quot;index&quot;:null}" stroke="#ffffff" stroke-width="4" stroke-linecap="round"/></g></g></svg>