<svg version="1.1" xmlns="http://www.w3.org/2000/svg" xmlns:xlink="http://www.w3.org/1999/xlink" width="48.16205" height="34.77536" viewBox="0,0,48.16205,34.77536"><g transform="translate(-223.96726,-164.12834)"><g data-paper-data="{&quot;isPaintingLayer&quot;:true}" fill="none" fill-rule="nonzero" stroke-linecap="round" stroke-linejoin="miter" stroke-miterlimit="10" stroke-dasharray="" stroke-dashoffset="0" style="mix-blend-mode: normal"><path d="M256.91317,173.66432l-5.07715,0.0303c0,0 12.16581,-0.08333 17.2933,-0.08333l-7.61279,0.02525" stroke="#000000" stroke-width="6"/><path d="M266.11725,173.96954c0,0 0.03254,13.27674 0.03926,14.76412c0.0298,6.59402 -4.04397,7.17004 -4.04397,7.17004" stroke="#000000" stroke-width="6"/><path d="M255.57435,183.99648h-2.86032h13.36349" stroke="#000000" stroke-width="6"/><path d="M247.84814,189.66304l1.2099,-1.66159c0,0 -2.40572,4.15146 -6.79729,4.87021c-4.27256,0.68551 -10.64388,-1.45282 -11.21249,-8.63431c-0.38468,-5.70093 3.76056,-10.04328 8.98266,-10.23578c6.27535,-0.24829 8.96539,4.96351 8.96539,4.96351l-1.08346,-1.57247" stroke="#000000" stroke-width="6"/><path d="M230.89667,167.12834h-3.9294c0,0 22.57791,0 26.06547,0h-5.58782" stroke="#000000" stroke-width="6"/><path d="M239.94639,172.6498v-4.09091" stroke="#000000" stroke-width="6"/><path d="M247.84813,189.66304l0.67144,-0.89236c0,0 -1.86726,3.38223 -6.25883,4.10098c-4.27256,0.68551 -10.64388,-1.45282 -11.21249,-8.63431c-0.38468,-5.70093 3.76056,-10.04328 8.98266,-10.23578c6.27535,-0.24829 8.50385,4.19428 8.50385,4.19428l-0.545,-0.80324" stroke="#ffffff" stroke-width="4"/><path d="M230.89666,167.12834h-3.00632c0,0 20.65483,0 24.14239,0h-4.58782" stroke="#ffffff" stroke-width="4"/><path d="M239.94639,172.64981v-4.09091" stroke="#ffffff" stroke-width="4"/><path d="M256.91317,173.66432l-4.12715,0.0303c0,0 10.2158,-0.08333 15.34329,-0.08333l-6.61278,0.02525" stroke="#ffffff" stroke-width="4"/><path d="M266.11725,173.96954c0,0 0.03254,13.27674 0.03926,14.76412c0.0298,6.59402 -4.04397,7.17004 -4.04397,7.17004" stroke="#ffffff" stroke-width="4"/><path d="M255.57435,183.99648h-1.91032h12.41349" stroke="#ffffff" stroke-width="4"/></g></g></svg>