<svg version="1.1" xmlns="http://www.w3.org/2000/svg" xmlns:xlink="http://www.w3.org/1999/xlink" width="32.06547" height="31.74332" viewBox="0,0,32.06547,31.74332"><g transform="translate(-224.00573,-164.06779)"><g data-paper-data="{&quot;isPaintingLayer&quot;:true}" fill="none" fill-rule="nonzero" stroke-linecap="round" stroke-linejoin="miter" stroke-miterlimit="10" stroke-dasharray="" stroke-dashoffset="0" style="mix-blend-mode: normal"><path d="M247.8866,189.60249l1.2099,-1.66159c0,0 -2.40572,4.15146 -6.79729,4.87021c-4.27256,0.68551 -10.64388,-1.45282 -11.21249,-8.63431c-0.38468,-5.70093 3.76056,-10.04328 8.98266,-10.23578c6.27535,-0.24829 8.96539,4.96351 8.96539,4.96351l-1.08346,-1.57247" stroke="#000000" stroke-width="6"/><path d="M230.93513,167.06779h-3.9294c0,0 22.57791,0 26.06547,0h-5.58782" stroke="#000000" stroke-width="6"/><path d="M239.98485,172.58925v-4.09091" stroke="#000000" stroke-width="6"/><path d="M247.88659,189.60249l0.67144,-0.89236c0,0 -1.86726,3.38223 -6.25883,4.10098c-4.27256,0.68551 -10.64388,-1.45282 -11.21249,-8.63431c-0.38468,-5.70093 3.76056,-10.04328 8.98266,-10.23578c6.27535,-0.24829 8.50385,4.19428 8.50385,4.19428l-0.545,-0.80324" stroke="#ffffff" stroke-width="4"/><path d="M230.93512,167.06779h-3.00632c0,0 20.65483,0 24.14239,0h-4.58782" stroke="#ffffff" stroke-width="4"/><path d="M239.98485,172.58926v-4.09091" stroke="#ffffff" stroke-width="4"/></g></g></svg>